<svg width="128" height="128" xmlns="http://www.w3.org/2000/svg">

 <g>
  <title>background</title>
  <rect fill="none" id="canvas_background" height="402" width="582" y="-1" x="-1"/>
 </g>
 <g>
  <title>Layer 1</title>
  <g id="svg_1">
   <path id="svg_2" fill="#42a5f5" stroke="#42a5f5" stroke-width="3" stroke-miterlimit="10" d="m86.785,109.878c-8.188,4.317 -16.533,5.962 -26.515,5.962c-24.428,0 -45.133,-17.879 -45.133,-46.479c0,-30.687 21.299,-57.201 54.376,-57.201c25.918,0 43.348,18.175 43.348,43.052c0,22.342 -12.517,35.448 -26.514,35.448c-5.968,0 -11.475,-4.021 -11.025,-13.105l-0.594,0c-5.214,8.787 -12.068,13.105 -21.007,13.105c-8.636,0 -16.083,-7 -16.083,-18.764c0,-18.473 14.591,-35.309 35.296,-35.309c6.403,0 12.067,1.34 15.937,3.13l-5.058,26.963c-2.232,11.323 -0.45,16.532 4.463,16.685c7.604,0.146 16.095,-9.982 16.095,-27.261c0,-21.602 -12.964,-37.09 -36.06,-37.09c-24.27,0 -44.684,19.212 -44.684,49.456c0,24.877 16.241,40.215 38.28,40.215c8.491,0 16.387,-1.783 22.499,-5.21l2.379,6.403zm-8.187,-64.351c-1.493,-0.449 -4.027,-1.043 -7.446,-1.043c-13.112,0 -23.689,12.366 -23.689,26.812c0,6.556 3.275,11.322 9.836,11.322c8.637,0 16.532,-11.025 18.169,-20.256l3.13,-16.835z"/>
  </g>
 </g>
</svg>