<svg width="23" height="23" xmlns="http://www.w3.org/2000/svg">
 <title/>
 <desc/>

 <g>
  <title>background</title>
  <rect fill="none" id="canvas_background" height="25" width="25" y="-1" x="-1"/>
 </g>
 <g>
  <title>Layer 1</title>
  <g id="Page-1" fill-rule="evenodd" fill="none">
   <g id="icon-42-target" fill="#929292">
    <path stroke="#42a5f5" fill="#42a5f5" id="target" d="m11.500023,22.625022c6.07513,0 11,-4.92487 11,-11c0,-6.07513 -4.92487,-11 -11,-11c-6.07513,0 -11,4.92487 -11,11c0,6.07513 4.92487,11 11,11l0,0zm0,-1c5.52285,0 10,-4.47715 10,-10c0,-5.52285 -4.47715,-10 -10,-10c-5.52285,0 -10,4.47715 -10,10c0,5.52285 4.47715,10 10,10l0,0zm0,-3c3.86599,0 7,-3.13401 7,-7c0,-3.86599 -3.13401,-7 -7,-7c-3.86599,0 -7,3.13401 -7,7c0,3.86599 3.13401,7 7,7l0,0zm0,-1c3.31371,0 6,-2.68629 6,-6c0,-3.31371 -2.68629,-6 -6,-6c-3.31371,0 -6,2.68629 -6,6c0,3.31371 2.68629,6 6,6l0,0zm0,-3c1.65685,0 3,-1.34315 3,-3c0,-1.65685 -1.34315,-3 -3,-3c-1.65685,0 -3,1.34315 -3,3c0,1.65685 1.34315,3 3,3l0,0zm0,-1c1.10457,0 2,-0.89543 2,-2c0,-1.10457 -0.89543,-2 -2,-2c-1.10457,0 -2,0.89543 -2,2c0,1.10457 0.89543,2 2,2l0,0z"/>
   </g>
  </g>
 </g>
</svg>